{"title":"Elementary S02E04 HDTV 480p x264 AAC E-Subs [GWC].mp4","uid":9064458,"size":133039456,"categoryP":"video","categoryS":"tv_shows","magnet":"?xt=urn:btih:d3daa59c5559ab5474a29fd7592f101c5267e607&amp;dn=Elementary+S02E04+HDTV+480p+x264+AAC+E-Subs+%5BGWC%5D.mp4&amp;tr=udp%3A%2F%2Ftracker.openbittorrent.com%3A80&amp;tr=udp%3A%2F%2Fopen.demonii.com%3A1337&amp;tr=udp%3A%2F%2Ftracker.coppersurfer.tk%3A6969&amp;tr=udp%3A%2F%2Fexodus.desync.com%3A6969","seeders":3,"leechers":0,"uploader":"canc232","files":1,"time":1382088757,"description":"Elementary S02E04 HDTV 480p x264 AAC E-Subs [GWC].mp4\n\n\nSCREENS :\n &lt;a href=&quot;\nhttp://s20.postimg.org/xkgbg02d9/Elementary_S02_E04_HDTV_480p_x264_AAC_E_Subs_GWC.jpg&quot; rel=&quot;nofollow&quot; target=&quot;_NEW&quot;&gt;\nhttp://s20.postimg.org/xkgbg02d9/Elementary_S02_E04_HDTV_480p_x264_AAC_E_Subs_GWC.jpg&lt;/a&gt;\n &lt;a href=&quot;\nhttp://s20.postimg.org/9fflyai2l/Elementary_S02_E04_HDTV_480p_x264_AAC_E_Subs_GWC.jpg&quot; rel=&quot;nofollow&quot; target=&quot;_NEW&quot;&gt;\nhttp://s20.postimg.org/9fflyai2l/Elementary_S02_E04_HDTV_480p_x264_AAC_E_Subs_GWC.jpg&lt;/a&gt;\n &lt;a href=&quot;\nhttp://s20.postimg.org/6k2irfe2l/Elementary_S02_E04_HDTV_480p_x264_AAC_E_Subs_GWC.jpg&quot; rel=&quot;nofollow&quot; target=&quot;_NEW&quot;&gt;\nhttp://s20.postimg.org/6k2irfe2l/Elementary_S02_E04_HDTV_480p_x264_AAC_E_Subs_GWC.jpg&lt;/a&gt;\n\n\n\nMEDIA INFO :\n\nGeneral \nFormat : MPEG-4 \nCodec ID : isom \nFile size : 127 MiB \nDuration : 43mn 30s \nOverall bit rate mode : Variable \nOverall bit rate : 408 Kbps \n\nVideo \nFormat : AVC \nFormat profile : &lt;a class=&quot;__cf_email__&quot; href=&quot;/cdn-cgi/l/email-protection&quot; data-cfemail=&quot;efa7868887afa3dcc1df&quot;&gt;[email&amp;#160;protected]&lt;/a&gt;&lt;script cf-hash='f9e31' type=&quot;text/javascript&quot;&gt;\n/* &lt;![CDATA[ */!function(){try{var t=&quot;currentScript&quot;in document?document.currentScript:function(){for(var t=document.getElementsByTagName(&quot;script&quot;),e=t.length;e--;)if(t[e].getAttribute(&quot;cf-hash&quot;))return t[e]}();if(t&amp;&amp;t.previousSibling){var e,r,n,i,c=t.previousSibling,a=c.getAttribute(&quot;data-cfemail&quot;);if(a){for(e=&quot;&quot;,r=parseInt(a.substr(0,2),16),n=2;a.length-n;n+=2)i=parseInt(a.substr(n,2),16)^r,e+=String.fromCharCode(i);e=document.createTextNode(e),c.parentNode.replaceChild(e,c)}}}catch(u){}}();/* ]]&gt; */&lt;/script&gt; \nFormat settings, CABAC : Yes \nFormat settings, ReFrames : 4 frames \nDuration : 43mn 30s \nBit rate : 344 Kbps \nMaximum bit rate : 1 587 Kbps \nWidth : 720 pixels \nHeight : 404 pixels \nDisplay aspect ratio : 16:9 \nFrame rate : 23.976 fps \nStream size : 107 MiB (84%) \nTitle : Elementary S02E04 HDTV 480p x264 AAC E-Subs [GWC] \nWriting library : x264 core\n\nAudio \nID : 2 \nFormat/Info : Advanced Audio Codec \nFormat profile : HE-AAC / LC \nDuration : 43mn 30s \nBit rate mode : Variable \nChannel(s) : 2 channels \nSampling rate : 48.0 KHz / 24.0 KHz \nStream size : 18.6 MiB (15%) \nTitle : Elementary S02E04 HDTV 480p x264 AAC E-Subs [GWC] \nLanguage : English \n\nText \nFormat : Timed Text \nDuration : 42mn 56s \nBit rate mode : Variable \nStream size : 36.2 KiB (0%) \nTitle : English Subtitle by elderman \nLanguage : English","torrent":{"xt":"urn:btih:d3daa59c5559ab5474a29fd7592f101c5267e607","amp;dn":"Elementary+S02E04+HDTV+480p+x264+AAC+E-Subs+%5BGWC%5D.mp4","amp;tr":["udp%3A%2F%2Ftracker.openbittorrent.com%3A80","udp%3A%2F%2Fopen.demonii.com%3A1337","udp%3A%2F%2Ftracker.coppersurfer.tk%3A6969","udp%3A%2F%2Fexodus.desync.com%3A6969"],"infoHash":"d3daa59c5559ab5474a29fd7592f101c5267e607","infoHashBuffer":{"type":"Buffer","data":[211,218,165,156,85,89,171,84,116,162,159,215,89,47,16,28,82,103,230,7]},"announce":[],"urlList":[]}}